<?xml version="1.0" encoding="UTF-8" standalone="no"?>
<!-- Created with ChemDraw (https://perkinelmerinformatics.com/products/research/chemdraw) and with Inkscape (http://www.inkscape.org/) -->
<svg width="1100" height="418" viewBox="0 0 291.04166 110.59584" version="1.1" id="svg5" xmlns="http://www.w3.org/2000/svg" xmlns:svg="http://www.w3.org/2000/svg" xmlns:rdf="http://www.w3.org/1999/02/22-rdf-syntax-ns#" xmlns:cc="http://creativecommons.org/ns#" xmlns:dc="http://purl.org/dc/elements/1.1/">
  <title id="title001">Creatinine tautomerism 2D skeletal</title>
  <metadata id="metadata001">
    <rdf:RDF>
      <cc:Work rdf:about="">
        <dc:title>Creatinine tautomerism 2D skeletal</dc:title>
        <dc:date><rdf:Seq><rdf:li name="file created date / orginal .png version">2007-09-06</rdf:li><rdf:li name="file created date / this .svg version">2022-12-05</rdf:li></rdf:Seq></dc:date>
        <dc:creator><cc:Agent><dc:title>Ben Mills (Benjah-bmm27)</dc:title></cc:Agent></dc:creator>
        <dc:rights><cc:Agent><dc:title>PD</dc:title></cc:Agent></dc:rights>
        <dc:publisher><cc:Agent><dc:title>gesamtszenario</dc:title></cc:Agent></dc:publisher>
        <dc:identifier>creatinine_tautomerism_2D_skeletal.svg</dc:identifier>
        <dc:source name="original .png version">File:Creatinine-tautomerism-2D-skeletal.png</dc:source>
        <dc:language>en</dc:language>
        <dc:subject><rdf:Bag><rdf:li>creatinine</rdf:li><rdf:li>tautomerism</rdf:li><rdf:li>tautomers</rdf:li><rdf:li>structural formula</rdf:li></rdf:Bag></dc:subject>
        <dc:description>en: Skeletal formulae of the two tautomers of creatinine. 
de: Strukturformeln der zwei Tautomere des Kreatinins.</dc:description>
        <dc:contributor><cc:Agent><dc:title>Ben Mills (Benjah-bmm27)</dc:title></cc:Agent></dc:contributor>
        <cc:license rdf:resource="https://en.wikipedia.org/wiki/Public_domain" />
        <dc:relation>https://commons.wikimedia.org/wiki/File:Creatinine-tautomerism-2D-skeletal.png</dc:relation>
      </cc:Work>
      <cc:License rdf:about="https://en.wikipedia.org/wiki/Public_domain"></cc:License>
    </rdf:RDF>
  </metadata>
  <g id="g_crea_tautos">
    <g id="g_crea_tauto_li">
      <path d="m 38.906043,45.28927 v 0 l 0.426472,0.30688 0.42644,0.30688 v 24.97264 l -0.42644,0.30688 -0.426472,0.30688 z" stroke="#000000" stroke-width="0" fill-rule="evenodd" stroke-linejoin="miter" fill="#000000" shape-rendering="geometricPrecision" id="path_b_01_s" style="fill:#000000;fill-opacity:1" />
      <path d="m 57.507616,39.24226 v 0 l 0.136355,0.40088 0.127973,0.40938 -18.013054,5.85083 -0.426439,-0.30688 -0.426472,-0.30688 z" stroke="#000000" stroke-width="0" fill-rule="evenodd" stroke-linejoin="miter" fill="#000000" shape-rendering="geometricPrecision" id="path_b_02_s" style="fill:#000000;fill-opacity:1" />
      <path d="m 79.23073,58.38967 v 0 h -0.528787 -0.528787 l -9.74856,-13.4245 0.341178,-0.24724 0.349688,-0.25595 z" stroke="#000000" stroke-width="0" fill-rule="evenodd" stroke-linejoin="miter" fill="#000000" shape-rendering="geometricPrecision" id="path_b_03_s" style="fill:#000000;fill-opacity:1" />
      <path d="m 69.05573,72.40265 v 0 l -0.349655,-0.25595 -0.341179,-0.24725 9.80826,-13.50978 h 0.528787 0.528787 z" stroke="#000000" stroke-width="0" fill-rule="evenodd" stroke-linejoin="miter" fill="#000000" shape-rendering="geometricPrecision" id="path_b_04_s" style="fill:#000000;fill-opacity:1" />
      <path d="m 38.906043,71.49007 v 0 l 0.426472,-0.30688 0.42644,-0.30687 18.013053,5.85081 -0.127973,0.4094 -0.136355,0.40084 z" stroke="#000000" stroke-width="0" fill-rule="evenodd" stroke-linejoin="miter" fill="#000000" shape-rendering="geometricPrecision" id="path_b_05_s" style="fill:#000000;fill-opacity:1" />
      <g id="g_b_06_d"><path d="m 38.906043,70.12546 v 0 -1.05761 l -14.635619,10.63557 0.494682,0.69083 z" stroke="#000000" stroke-width="0" fill-rule="evenodd" stroke-linejoin="miter" fill="#000000" shape-rendering="geometricPrecision" id="path_b_06_d_01" style="fill:#000000;fill-opacity:1" /><path d="m 41.208864,72.2406 v 0 l -0.997874,-0.32409 -14.14097,10.2688 0.503225,0.69086 z" stroke="#000000" stroke-width="0" fill-rule="evenodd" stroke-linejoin="miter" fill="#000000" shape-rendering="geometricPrecision" id="path_b_06_d_02" style="fill:#000000;fill-opacity:1" /></g>
      <path d="m 66.420305,30.58542 v 0 l -0.400844,-0.12798 -0.409389,-0.13635 5.552328,-17.09193 0.409387,0.12797 0.409388,0.12797 z" stroke="#000000" stroke-width="0" fill-rule="evenodd" stroke-linejoin="miter" fill="#000000" shape-rendering="geometricPrecision" id="path_b_07_s" style="fill:#000000;fill-opacity:1" />
      <g id="g_b_08_d"><path d="m 77.806415,56.42803 v 0 l 0.614082,0.85287 h 19.735898 v -0.85287 z" stroke="#000000" stroke-width="0" fill-rule="evenodd" stroke-linejoin="miter" fill="#000000" shape-rendering="geometricPrecision" id="path_b_08_d_01" style="fill:#000000;fill-opacity:1" /><path d="m 78.420497,59.49843 v 0 l -0.614082,0.85289 h 20.34998 v -0.85289 z" stroke="#000000" stroke-width="0" fill-rule="evenodd" stroke-linejoin="miter" fill="#000000" shape-rendering="geometricPrecision" id="path_b_08_d_02" style="fill:#000000;fill-opacity:1" /></g>
      <path d="m 13.229167,86.458509 q 0,-2.812086 1.510051,-4.399181 1.510052,-1.5948 3.898399,-1.5948 1.563982,0 2.819791,0.747322 1.255808,0.747321 1.910677,2.087877 0.662574,1.332852 0.662574,3.027808 0,1.718069 -0.693391,3.074034 -0.693391,1.355965 -1.964608,2.05706 -1.271217,0.693391 -2.742747,0.693391 -1.5948,0 -2.850608,-0.770434 -1.255808,-0.770435 -1.902973,-2.103287 -0.647165,-1.332851 -0.647165,-2.81979 z m 1.540869,0.02311 q 0,2.041652 1.094017,3.220416 1.101721,1.171061 2.758155,1.171061 1.687252,0 2.773565,-1.186469 1.094017,-1.18647 1.094017,-3.366799 0,-1.379078 -0.469965,-2.403756 -0.462261,-1.032382 -1.363669,-1.5948 -0.893704,-0.570121 -2.010835,-0.570121 -1.587095,0 -2.735042,1.094017 -1.140243,1.086313 -1.140243,3.636451 z" style="font-size:15.7785px;font-family:Arial;stroke-width:0.22566;text-rendering:geometricPrecision" id="path_text_01_O"><desc id="desc1327">O</desc><title id="title1325">O</title></path>
      <path d="M 59.195603,43.33617 V 32.0416 h 1.533164 l 5.932347,8.867701 V 32.0416 h 1.433008 v 11.29457 h -1.533165 l -5.932346,-8.875406 v 8.875406 z" style="font-size:15.7785px;font-family:Arial;stroke-width:0.22566;text-rendering:geometricPrecision" id="path_text_02_N"><desc id="desc1429">N</desc><title id="title1427">N</title></path>
      <g id="g_text_03_NH"><path d="M 59.195362,84.743866 V 73.449295 h 1.533165 l 5.932346,8.867702 v -8.867702 h 1.433008 V 84.743866 H 66.560717 L 60.628371,75.86846 v 8.875406 z" id="path_text_03_01_N" style="font-size:15.7785px;line-height:0.8;font-family:Arial;-inkscape-font-specification:Arial;letter-spacing:-0.159718px;stroke-width:0.266196"><desc id="desc1697">N</desc><title id="title1695">N</title></path><path d="M 59.256997,97.366669 V 86.072098 h 1.494643 v 4.638016 h 5.870711 v -4.638016 h 1.494643 V 97.366669 H 66.622351 V 92.042966 H 60.75164 v 5.323703 z" id="path_text_03_02_H" style="font-size:15.7785px;line-height:0.8;font-family:Arial;-inkscape-font-specification:Arial;letter-spacing:-0.159718px;stroke-width:0.266196"><desc id="desc1701">H</desc><title id="title1699">H</title></path></g>
      <g id="g_text_04_NH"><path d="M 99.827328,64.044312 V 52.749741 h 1.533162 l 5.93235,8.867702 v -8.867702 h 1.43301 v 11.294571 h -1.53317 l -5.93234,-8.875407 v 8.875407 z" style="font-size:15.7785px;font-family:Arial;stroke-width:0.22566;text-rendering:geometricPrecision" id="path_text_04_01_N"><desc id="desc1732">N</desc><title id="title1730">N</title></path><path d="M 111.28369,64.044312 V 52.749741 h 1.49464 v 4.638016 h 5.87071 v -4.638016 h 1.49465 v 11.294571 h -1.49465 v -5.323703 h -5.87071 v 5.323703 z" style="font-size:15.7785px;font-family:Arial;stroke-width:0.22566;text-rendering:geometricPrecision" id="path_text_04_02_H"><desc id="desc1736">H</desc><title id="title1734">H</title></path></g>
    </g>
    <g id="g_arr"><desc id="desc978">⇌</desc><title id="title976">⇌</title>
      <g id="g_arr_re"><path style="fill:#000000;stroke:#000000;stroke-width:0.798614;stroke-linecap:butt;stroke-linejoin:miter;stroke-miterlimit:4;stroke-dasharray:none;stroke-opacity:1;fill-opacity:1" d="m 133.75125,57.451702 h 31.75" id="path_arr_re_line" /><path style="fill:#000000;fill-opacity:1;stroke:#000000;stroke-width:0.157842" d="m 160.89469,57.772088 h 8.02412 l -8.02412,-3.881102 z" id="path_arr_re_tip" /></g>
      <g id="g_arr_li"><path style="fill:#000000;stroke:#000000;stroke-width:0.798614;stroke-linecap:butt;stroke-linejoin:miter;stroke-miterlimit:4;stroke-dasharray:none;stroke-opacity:1;fill-opacity:1" d="m 168.95329,60.520476 h -31.75" id="path_arr_li_line" /><path style="fill:#000000;fill-opacity:1;stroke:#000000;stroke-width:0.157842" d="m 141.80985,60.20009 h -8.02412 l 8.02412,3.881102 z" id="path_arr_li_tip" /></g>
    </g>
    <g id="g_crea_tauto_re">
      <path d="m 189.34634,45.28928 v 0 l 0.42644,0.30688 0.42644,0.30688 v 24.97264 l -0.42644,0.30688 -0.42644,0.30688 z" stroke="#000000" stroke-width="0" fill-rule="evenodd" stroke-linejoin="miter" fill="#000000" shape-rendering="geometricPrecision" id="path_b_09_s" style="fill:#000000;fill-opacity:1" />
      <path d="m 207.94788,39.24227 v 0 l 0.13635,0.40088 0.12798,0.40938 -18.01306,5.85083 -0.42643,-0.30688 -0.42645,-0.30688 z" stroke="#000000" stroke-width="0" fill-rule="evenodd" stroke-linejoin="miter" fill="#000000" shape-rendering="geometricPrecision" id="path_b_10_s" style="fill:#000000;fill-opacity:1" />
      <path d="m 229.35543,57.96324 v 0 l -0.21339,0.42644 h -0.52879 l -9.74852,-13.4245 0.34115,-0.24724 0.34969,-0.25595 z" stroke="#000000" stroke-width="0" fill-rule="evenodd" stroke-linejoin="miter" fill="#000000" shape-rendering="geometricPrecision" id="path_b_11_s" style="fill:#000000;fill-opacity:1" />
      <g id="g_b_12_d"><path d="m 219.49603,72.40266 v 0 l -0.34969,-0.25595 -0.34118,-0.24725 9.80825,-13.50978 h 0.52879 l 0.21339,0.42643 z" stroke="#000000" stroke-width="0" fill-rule="evenodd" stroke-linejoin="miter" fill="#000000" shape-rendering="geometricPrecision" id="path_b_12_d_01" style="fill:#000000;fill-opacity:1" /><path id="path_b_12_d_02" style="stroke:#000000;stroke-width:0.85289" d="m 216.92029,70.526306 8.81033,-12.136612" /></g>
      <path d="m 189.34634,71.49008 v 0 l 0.42644,-0.30688 0.42644,-0.30687 18.01305,5.85081 -0.12797,0.4094 -0.13635,0.40084 z" stroke="#000000" stroke-width="0" fill-rule="evenodd" stroke-linejoin="miter" fill="#000000" shape-rendering="geometricPrecision" id="path_b_13_s" style="fill:#000000;fill-opacity:1" />
      <g id="g_b_14_d"><path d="m 189.34634,70.12547 v 0 -1.05761 l -14.6356,10.63557 0.49465,0.69083 z" stroke="#000000" stroke-width="0" fill-rule="evenodd" stroke-linejoin="miter" fill="#000000" shape-rendering="geometricPrecision" id="path_b_14_d_01" style="fill:#000000;fill-opacity:1" /><path d="m 191.64913,72.24061 v 0 l -0.99787,-0.32409 -14.14093,10.2688 0.50319,0.69086 z" stroke="#000000" stroke-width="0" fill-rule="evenodd" stroke-linejoin="miter" fill="#000000" shape-rendering="geometricPrecision" id="path_b_14_d_02" style="fill:#000000;fill-opacity:1" /></g>
      <path d="m 216.86057,30.58543 v 0 l -0.40084,-0.12798 -0.40939,-0.13635 5.55232,-17.09193 0.40939,0.12797 0.40939,0.12797 z" stroke="#000000" stroke-width="0" fill-rule="evenodd" stroke-linejoin="miter" fill="#000000" shape-rendering="geometricPrecision" id="path_b_15_s" style="fill:#000000;fill-opacity:1" />
      <path d="m 229.35543,58.81611 v 0 l -0.21339,-0.42643 0.21339,-0.42644 h 19.24122 v 0.42644 0.42643 z" stroke="#000000" stroke-width="0" fill-rule="evenodd" stroke-linejoin="miter" fill="#000000" shape-rendering="geometricPrecision" id="path_b_16_s" style="fill:#000000;fill-opacity:1" />
      <path d="m 163.66941,86.458524 q 0,-2.812086 1.51005,-4.399181 1.51005,-1.5948 3.8984,-1.5948 1.56398,0 2.81979,0.747322 1.25581,0.747321 1.91068,2.087878 0.66257,1.332851 0.66257,3.027807 0,1.718069 -0.69339,3.074034 -0.69339,1.355965 -1.96461,2.05706 -1.27122,0.693392 -2.74275,0.693392 -1.5948,0 -2.8506,-0.770435 -1.25581,-0.770435 -1.90298,-2.103286 -0.64716,-1.332852 -0.64716,-2.819791 z m 1.54087,0.02311 q 0,2.041652 1.09401,3.220417 1.10173,1.17106 2.75816,1.17106 1.68725,0 2.77356,-1.186469 1.09402,-1.186469 1.09402,-3.366799 0,-1.379078 -0.46996,-2.403756 -0.46227,-1.032382 -1.36367,-1.594799 -0.89371,-0.570122 -2.01084,-0.570122 -1.58709,0 -2.73504,1.094017 -1.14024,1.086313 -1.14024,3.636451 z" style="font-size:15.7785px;font-family:Arial;stroke-width:0.22566;text-rendering:geometricPrecision" id="path_text_05_O"><desc id="desc1840">O</desc><title id="title1838">O</title></path>
      <path d="M 209.63587,43.336182 V 32.041611 h 1.53316 l 5.93235,8.867702 v -8.867702 h 1.43301 v 11.294571 h -1.53317 l -5.93234,-8.875406 v 8.875406 z" style="font-size:15.7785px;font-family:Arial;stroke-width:0.22566;text-rendering:geometricPrecision" id="path_text_06_N"><desc id="desc1868">N</desc><title id="title1866">N</title></path>
      <path d="m 209.63587,84.743988 v -11.29457 h 1.53316 l 5.93235,8.867701 v -8.867701 h 1.43301 v 11.29457 h -1.53317 l -5.93234,-8.875406 v 8.875406 z" style="font-size:15.7785px;font-family:Arial;stroke-width:0.22566;text-rendering:geometricPrecision" id="path_text_07_N"><desc id="desc1896">N</desc><title id="title1894">N</title></path>
      <g id="g_text_08_NH2"><path d="m 250.26763,64.061401 v -11.29457 h 1.53316 l 5.93235,8.867702 v -8.867702 h 1.43301 v 11.29457 h -1.53317 l -5.93234,-8.875406 v 8.875406 z" style="font-size:15.7785px;font-family:Arial;stroke-width:0.22566;text-rendering:geometricPrecision" id="path_text_08_01_N"><desc id="desc2227">N</desc><title id="title2225">N</title></path><path d="m 261.72399,64.061401 v -11.29457 h 1.49464 v 4.638016 h 5.87071 v -4.638016 h 1.49465 v 11.29457 h -1.49465 v -5.323702 h -5.87071 v 5.323702 z" style="font-size:15.7785px;font-family:Arial;stroke-width:0.22566;text-rendering:geometricPrecision" id="path_text_08_02_H"><desc id="desc2231">H</desc><title id="title2229">H</title></path><path d="m 277.81255,66.635381 v 0.999633 h -5.5991 q -0.0115,-0.375585 0.12135,-0.722278 0.21379,-0.572044 0.68183,-1.126753 0.47381,-0.55471 1.36366,-1.282766 1.38099,-1.132532 1.86636,-1.791249 0.48537,-0.664496 0.48537,-1.253874 0,-0.61827 -0.44492,-1.04008 -0.43914,-0.427589 -1.14987,-0.427589 -0.75116,0 -1.20187,0.450701 -0.4507,0.450702 -0.45648,1.248097 l -1.06897,-0.109787 q 0.10979,-1.196092 0.82629,-1.82014 0.7165,-0.629826 1.92415,-0.629826 1.2192,0 1.92992,0.676052 0.71072,0.676052 0.71072,1.675685 0,0.508483 -0.20801,0.999632 -0.20802,0.491149 -0.69339,1.034302 -0.47959,0.543153 -1.60057,1.490781 -0.93607,0.785839 -1.20187,1.068972 -0.26579,0.277354 -0.43914,0.560487 z" style="font-size:11.8338px;font-family:Arial;stroke-width:0.22566;text-rendering:geometricPrecision" id="path_text_08_02_2"><desc id="desc2235">&lt;sub&gt;2&lt;/sub&gt;</desc><title id="title2233">2</title></path></g>
    </g>
  </g>
</svg>
